<?xml version="1.0" encoding="UTF-8"?>
<svg version="1.1" xmlns="http://www.w3.org/2000/svg" width="500" height="500">
<path d="M0 0 C3.0598298 0.81179158 4.71657229 1.73725626 7.0625 3.8125 C6.55990736 8.16830284 5.27294864 10.00999209 2.1875 13.0625 C-10.5532925 26.69312562 -19.53128321 44.5612802 -27.671875 61.22265625 C-28.74574198 63.42010627 -29.8651584 65.58389362 -31 67.75 C-33.76292329 73.24087286 -35.79727171 79.05844361 -37.9375 84.8125 C-37.59082275 84.38541748 -37.24414551 83.95833496 -36.88696289 83.51831055 C-36.3996167 82.91801025 -35.91227051 82.31770996 -35.41015625 81.69921875 C-34.86955566 81.03325684 -34.32895508 80.36729492 -33.77197266 79.68115234 C-32.58372773 78.21852075 -31.39458947 76.75661448 -30.20458984 75.29541016 C-27.55921542 72.04656642 -24.9167107 68.79680088 -22.31640625 65.51171875 C-11.71619432 52.22930415 -11.71619432 52.22930415 -5.1875 51.25 C-1.9375 51.8125 -1.9375 51.8125 -0.125 53.125 C4.29780621 59.4100404 3.63257176 64.65000749 2.38671875 72.0859375 C1.97836795 74.42726441 1.55952311 76.7664668 1.13671875 79.10522461 C0.09583484 85.05089862 -0.29673995 90.77194672 0.0625 96.8125 C4.00746149 95.36492735 6.14546659 93.83012077 9.0625 90.8125 C9.7225 90.8125 10.3825 90.8125 11.0625 90.8125 C12.19830163 94.2199049 12.03346586 95.91774876 11.0625 99.4375 C9.0625 102.8125 9.0625 102.8125 5.75 104.875 C1.52309761 105.9496362 -0.09071461 105.77863475 -3.9375 103.8125 C-6.78928727 101.43601061 -8.57351804 99.25185106 -9.9375 95.8125 C-10.86278337 85.10370572 -9.38981439 74.4066148 -7.9375 63.8125 C-8.5975 63.8125 -9.2575 63.8125 -9.9375 63.8125 C-10.20046875 64.39902344 -10.4634375 64.98554688 -10.734375 65.58984375 C-11.99702069 67.92245868 -13.35330002 69.46503958 -15.1875 71.375 C-25.68706989 82.94751863 -36.21144784 96.72882799 -43.39453125 110.6328125 C-43.90371094 111.35210937 -44.41289062 112.07140625 -44.9375 112.8125 C-48.9375 112.8125 -48.9375 112.8125 -51.5625 110.5625 C-54.0449586 107.68807425 -55.80886559 105.57380195 -56.08984375 101.7265625 C-55.35978173 93.94808349 -52.77397526 87.05210836 -49.9375 79.8125 C-49.5353125 78.78382813 -49.133125 77.75515625 -48.71875 76.6953125 C-47.80648769 74.39510824 -46.87442789 72.10276817 -45.9375 69.8125 C-50.8875 69.8125 -55.8375 69.8125 -60.9375 69.8125 C-60.133125 70.76125 -59.32875 71.71 -58.5 72.6875 C-55.28175975 76.48337312 -54.54633093 78.72730205 -54.9375 83.8125 C-56.75560284 88.76177995 -59.44444567 92.09470542 -63.9375 94.8125 C-75.31224128 100.05540308 -92.13667785 104.1848259 -104.48046875 99.9375 C-107.62905696 97.96395193 -108.89723901 95.91411107 -110.25 92.5 C-109.793168 87.10938238 -107.85734302 84.46922103 -103.9375 80.8125 C-97.15549313 75.65204269 -89.66822461 71.36863332 -81.9375 67.8125 C-82.80632812 67.36519531 -83.67515625 66.91789062 -84.5703125 66.45703125 C-101.06526988 57.80363638 -101.06526988 57.80363638 -102.9375 51.8125 C-103.0625 49.0625 -103.0625 49.0625 -102.9375 46.8125 C-103.989375 46.565 -105.04125 46.3175 -106.125 46.0625 C-109.03272881 45.26097315 -110.13876873 44.64477606 -112.5625 42.625 C-114.7627846 40.5787213 -114.7627846 40.5787213 -117.375 40.75 C-123.84240274 43.43160602 -127.35234696 48.38628212 -130.8125 54.1875 C-131.24030762 54.88939453 -131.66811523 55.59128906 -132.10888672 56.31445312 C-139.41918672 68.43938358 -145.66333081 81.13160876 -151.9375 93.8125 C-152.60331836 95.14625715 -153.26948415 96.47984211 -153.9375 97.8125 C-160.30739498 97.21156651 -160.30739498 97.21156651 -162.8125 95.625 C-164.44414406 92.99624012 -164.67168968 90.90164701 -164.9375 87.8125 C-164.29237538 85.18390013 -163.58735739 82.78416628 -162.6875 80.25 C-160.32012213 73.18070103 -158.51479419 66.10215693 -156.9375 58.8125 C-156.6104105 57.47762122 -156.27977417 56.14356622 -155.9375 54.8125 C-155.2775 54.8125 -154.6175 54.8125 -153.9375 54.8125 C-153.81375 53.74 -153.69 52.6675 -153.5625 51.5625 C-153.01060844 48.25115066 -152.45246015 46.66700386 -150.9375 43.8125 C-150.11743197 42.04515867 -149.30547023 40.2740419 -148.5 38.5 C-148.05785156 37.52933594 -147.61570313 36.55867188 -147.16015625 35.55859375 C-146.20204433 33.40666825 -145.30590201 31.25087306 -144.4375 29.0625 C-141.84815873 23.45226059 -138.88187022 18.25121599 -132.9375 15.8125 C-129.84219271 16.08561535 -128.60312645 17.0354157 -125.9375 18.8125 C-126.45726663 22.82509841 -127.42820856 24.75486952 -130.25 27.625 C-133.23966159 30.87091829 -135.22723387 33.90067533 -137.046875 37.90234375 C-137.9375 39.8125 -137.9375 39.8125 -139.875 42.9375 C-143.28921125 48.78654717 -146.9375 57.03268704 -146.9375 63.8125 C-146.40962891 62.79542969 -146.40962891 62.79542969 -145.87109375 61.7578125 C-142.3286246 55.07984194 -138.44128023 48.88142371 -133.9375 42.8125 C-133.28974609 41.89597656 -133.28974609 41.89597656 -132.62890625 40.9609375 C-129.63752999 36.97897435 -126.65063359 35.30085798 -121.9375 33.8125 C-117.1103595 33.38561002 -114.44199979 34.27811633 -110.3125 36.75 C-107.18528207 38.60267953 -104.53021521 40.1462453 -100.9375 40.8125 C-100.9375 40.1525 -100.9375 39.4925 -100.9375 38.8125 C-99.07407715 37.28760405 -97.23357789 35.91622805 -95.25 34.5625 C-94.66710205 34.16426025 -94.0842041 33.76602051 -93.48364258 33.35571289 C-76.6000068 22.11732337 -76.6000068 22.11732337 -66.9375 23.8125 C-63.18537724 25.82752889 -61.30105905 27.26716142 -58.9375 30.8125 C-59.3125 33.5 -59.3125 33.5 -59.9375 35.8125 C-60.6903125 35.8640625 -61.443125 35.915625 -62.21875 35.96875 C-69.33415797 36.72864794 -75.04772501 38.40610513 -81.4375 41.5625 C-82.10716797 41.88541016 -82.77683594 42.20832031 -83.46679688 42.54101562 C-88.09444468 44.94105452 -90.83066671 47.63022442 -93.9375 51.8125 C-90.81267628 53.45866818 -87.68761114 55.10437754 -84.5625 56.75 C-83.67304688 57.21857422 -82.78359375 57.68714844 -81.8671875 58.16992188 C-81.01640625 58.61787109 -80.165625 59.06582031 -79.2890625 59.52734375 C-78.50354004 59.94105225 -77.71801758 60.35476074 -76.90869141 60.78100586 C-73.37994443 62.62754487 -71.75726577 62.84651747 -67.75 62.4375 C-66.75355469 62.33824219 -65.75710938 62.23898438 -64.73046875 62.13671875 C-62.66719703 61.89720609 -60.61136544 61.59147757 -58.5625 61.25 C-55.05758819 60.8269934 -51.73826356 60.76978185 -48.2109375 60.78515625 C-47.03708496 60.789104 -45.86323242 60.79305176 -44.65380859 60.79711914 C-43.75742676 60.80219482 -42.86104492 60.80727051 -41.9375 60.8125 C-41.5156543 60.03350342 -41.09380859 59.25450684 -40.65917969 58.4519043 C-8.62686242 -0.55065079 -8.62686242 -0.55065079 0 0 Z M-16.9375 21.8125 C-15.9375 23.8125 -15.9375 23.8125 -15.9375 23.8125 Z M-18.9375 24.8125 C-17.9375 26.8125 -17.9375 26.8125 -17.9375 26.8125 Z M-11.9375 58.8125 C-13.5875 60.4625 -15.2375 62.1125 -16.9375 63.8125 C-16.6075 64.4725 -16.2775 65.1325 -15.9375 65.8125 C-14.2875 64.1625 -12.6375 62.5125 -10.9375 60.8125 C-11.2675 60.1525 -11.5975 59.4925 -11.9375 58.8125 Z M-149.9375 66.8125 C-148.9375 68.8125 -148.9375 68.8125 -148.9375 68.8125 Z M-21.9375 69.8125 C-23.5875 71.4625 -25.2375 73.1125 -26.9375 74.8125 C-26.6075 75.8025 -26.2775 76.7925 -25.9375 77.8125 C-24.2875 75.8325 -22.6375 73.8525 -20.9375 71.8125 C-21.2675 71.1525 -21.5975 70.4925 -21.9375 69.8125 Z M-104.9375 89.8125 C-104.6075 90.8025 -104.2775 91.7925 -103.9375 92.8125 C-99.4070884 94.64712949 -94.63572274 95.32805572 -89.9375 93.8125 C-89.9375 94.4725 -89.9375 95.1325 -89.9375 95.8125 C-93.8975 95.8125 -97.8575 95.8125 -101.9375 95.8125 C-101.9375 96.1425 -101.9375 96.4725 -101.9375 96.8125 C-95.81769467 98.21704548 -90.22010706 99.04518915 -83.9375 98.8125 C-83.6075 97.4925 -83.2775 96.1725 -82.9375 94.8125 C-83.9275 94.4825 -84.9175 94.1525 -85.9375 93.8125 C-84.36162109 93.37550781 -84.36162109 93.37550781 -82.75390625 92.9296875 C-70.82942058 89.77803877 -70.82942058 89.77803877 -60.9375 82.8125 C-60.16927698 80.21066412 -60.16927698 80.21066412 -59.9375 77.8125 C-61.29982366 76.79529833 -62.67807797 75.79941471 -64.0625 74.8125 C-64.82820313 74.255625 -65.59390625 73.69875 -66.3828125 73.125 C-78.56287735 66.867352 -96.51621005 81.86167317 -104.9375 89.8125 Z M-28.9375 78.8125 C-28.9375 81.8125 -28.9375 81.8125 -28.9375 81.8125 Z M-74.9375 94.8125 C-70.9375 95.8125 -70.9375 95.8125 -70.9375 95.8125 Z M-79.9375 95.8125 C-75.9375 96.8125 -75.9375 96.8125 -75.9375 96.8125 Z " fill="#FFFFFF" transform="translate(390.9375,190.1875)"/>
<path d="M0 0 C3.75 0.6875 3.75 0.6875 5.8125 1.8125 C7.50473521 5.19697042 6.03205853 8.8108674 4.91796875 12.2734375 C4.59441406 13.19382813 4.27085937 14.11421875 3.9375 15.0625 C-0.98711341 30.88526511 -2.47251292 47.72915689 -4.5 64.125 C-4.63341797 65.18926208 -4.63341797 65.18926208 -4.76953125 66.27502441 C-5.6177636 73.09688561 -6.3566735 79.78838087 -6.18164062 86.67138672 C-6.28368748 89.68103994 -7.03910792 92.46978356 -7.75585938 95.38427734 C-8.61516691 99.3895675 -8.79925787 103.4171642 -9 107.5 C-9.05542969 108.33208984 -9.11085938 109.16417969 -9.16796875 110.02148438 C-9.21050781 110.82521484 -9.25304687 111.62894531 -9.296875 112.45703125 C-9.35633301 113.53368042 -9.35633301 113.53368042 -9.41699219 114.63208008 C-9.22054801 117.05000918 -8.3444222 118.54199642 -7.25 120.6875 C-7.1722654 123.01953812 -7.16032272 125.35589059 -7.25 127.6875 C-9.87016272 128.83382119 -11.62146764 128.90134278 -14.328125 127.98046875 C-16.98386388 126.47586849 -18.46585619 125.18115216 -20.25 122.6875 C-23.29368635 110.61618083 -20.62582803 96.86618828 -19.25 84.6875 C-20.04172607 85.04054199 -20.83345215 85.39358398 -21.64916992 85.75732422 C-24.60277217 87.07383641 -27.55675221 88.38949625 -30.51098633 89.70458984 C-31.78652776 90.2726107 -33.06192057 90.84096541 -34.3371582 91.40966797 C-36.17619813 92.22973185 -38.01582761 93.04847321 -39.85546875 93.8671875 C-40.96043701 94.35944824 -42.06540527 94.85170898 -43.20385742 95.35888672 C-45.86822025 96.52098198 -48.54416289 97.62630107 -51.25 98.6875 C-55.54999209 123.4058566 -55.54999209 123.4058566 -52.25 147.6875 C-50.92911528 149.03316679 -49.59697947 150.36795392 -48.25 151.6875 C-48.25 152.6775 -48.25 153.6675 -48.25 154.6875 C-52.00730728 155.23544065 -54.12726815 155.36476733 -57.42578125 153.375 C-62.1874347 149.47514489 -63.82514301 146.77241879 -65.25 140.6875 C-65.40922382 137.94148836 -65.48528395 135.30632253 -65.4453125 132.56640625 C-65.4424826 131.82164536 -65.43965271 131.07688446 -65.43673706 130.30955505 C-65.42563917 127.95619899 -65.4005551 125.60323891 -65.375 123.25 C-65.36495672 121.64388575 -65.35583324 120.03776546 -65.34765625 118.43164062 C-65.32573407 114.51677704 -65.29127761 110.6022054 -65.25 106.6875 C-66.84861285 107.94635574 -68.44442531 109.20876817 -70.0390625 110.47265625 C-71.37251709 111.52658569 -71.37251709 111.52658569 -72.73291016 112.60180664 C-74.84899104 114.35521876 -76.74189803 116.13132228 -78.625 118.125 C-81.9112426 121.33299873 -81.9112426 121.33299873 -85.25 121.6875 C-86.24 121.0275 -87.23 120.3675 -88.25 119.6875 C-87.64585298 113.84058563 -84.48155719 111.71853028 -80.23046875 108.01953125 C-76.26920355 104.92008784 -72.06682734 102.3261241 -67.71875 99.8046875 C-63.03128602 95.78474213 -62.92598192 89.20053965 -62.171875 83.33203125 C-61.98234635 81.90373211 -61.79221729 80.47551254 -61.6015625 79.04736328 C-61.50391602 78.30552795 -61.40626953 77.56369263 -61.30566406 76.79937744 C-59.67774823 64.55327654 -57.80798571 52.4030573 -55.25 40.3125 C-55.02538086 39.22300049 -54.80076172 38.13350098 -54.56933594 37.01098633 C-50.16358852 16.96359628 -50.16358852 16.96359628 -44.79296875 12.76806641 C-42.25 11.6875 -42.25 11.6875 -38.9375 12.5 C-38.050625 12.891875 -37.16375 13.28375 -36.25 13.6875 C-34.83772859 18.46749553 -35.20230735 21.05985963 -37.3125 25.5625 C-46.28141192 45.71149603 -48.2551514 69.014042 -51.25 90.6875 C-50.69127197 90.43057373 -50.13254395 90.17364746 -49.55688477 89.90893555 C-46.97758814 88.72617005 -44.39508793 87.55056049 -41.8125 86.375 C-40.93400391 85.97087891 -40.05550781 85.56675781 -39.15039062 85.15039062 C-24.91101372 78.6875 -24.91101372 78.6875 -18.25 78.6875 C-18.18006836 78.00051025 -18.11013672 77.31352051 -18.03808594 76.60571289 C-16.04156334 57.24233257 -13.73264708 37.90830436 -9.61938477 18.86352539 C-9.13842807 16.39809497 -9.13842807 16.39809497 -9.25 12.6875 C-10.57 12.6875 -11.89 12.6875 -13.25 12.6875 C-10.62273155 7.02484373 -6.86283963 0.21525512 0 0 Z " fill="#FFFFFF" transform="translate(180.25,171.3125)"/>
<path d="M0 0 C0.33 -0.33 0.66 -0.66 1 -1 C6.73211781 -1.56381487 6.73211781 -1.56381487 9 -1 C11.41796875 1.09375 11.41796875 1.09375 13 4 C12.35825688 6.6118945 11.6451824 8.49140502 10.5 10.875 C3.34981447 27.67386774 1.86124773 46.89282841 2 65 C-1.05187754 65.50864626 -3.13348516 65.60304749 -5.734375 63.79296875 C-8.10540114 61.38242551 -9.82221441 59.24478002 -10.30908203 55.8359375 C-10.16139982 49.10725476 -9.44075123 42.53653574 -8.5 35.875 C-8.35691406 34.823125 -8.21382812 33.77125 -8.06640625 32.6875 C-7.71685503 30.12412438 -7.36129594 27.56174192 -7 25 C-17.44088076 41.60326558 -17.44088076 41.60326558 -26.25 59.0625 C-28.10852686 63.42070491 -29.86913194 67.04671692 -34.375 69.0625 C-38.92313981 68.95421096 -41.66649182 66.24460763 -44.875 63.25 C-47.88558998 57.22882003 -45.53077499 49.89926823 -43.6875 43.8125 C-43.4289624 42.9568042 -43.1704248 42.1011084 -42.90405273 41.21948242 C-40.71983596 34.43133369 -37.85843397 28.12899998 -34.5625 21.8125 C-34.12059326 20.96469971 -33.67868652 20.11689941 -33.22338867 19.2434082 C-29.30458469 12.03272348 -24.25671184 2.93757426 -16.875 -1.1875 C-11.12913316 -2.81133193 -5.37795495 -2.77571868 0 0 Z M-8 3 C-10.26762514 5.45015844 -12.09534047 8.26342021 -14 11 C-14.55042969 11.77472656 -15.10085937 12.54945313 -15.66796875 13.34765625 C-20.90782854 21.10552646 -24.58326796 29.48585663 -28.19384766 38.08886719 C-28.86813671 39.68739375 -29.57652111 41.2714816 -30.29296875 42.8515625 C-31.28396054 45.14301372 -31.28396054 45.14301372 -30 48 C-24.17333047 39.70767125 -18.53100001 31.33104205 -13.12597656 22.75830078 C-11.97121186 20.95504506 -10.78215195 19.17832154 -9.5859375 17.40234375 C-8.8277883 16.24761683 -8.06996323 15.09267701 -7.3125 13.9375 C-6.62800781 12.91527344 -5.94351563 11.89304688 -5.23828125 10.83984375 C-3.66411631 8.04265836 -3.66411631 8.04265836 -4.79296875 5.12890625 C-5.19128906 4.42636719 -5.58960938 3.72382813 -6 3 C-6.66 3 -7.32 3 -8 3 Z M-5 12 C-4 14 -4 14 -4 14 Z M-8 17 C-7 19 -7 19 -7 19 Z M-9 19 C-8 21 -8 21 -8 21 Z M-11 23 C-10 25 -10 25 -10 25 Z M-32 48 C-31 50 -31 50 -31 50 Z " fill="#FFFFFF" transform="translate(221,218)"/>
</svg>
