<svg xmlns="http://www.w3.org/2000/svg" width="430" height="430" style="width:100%;height:100%;transform:translate3d(0,0,0);content-visibility:visible" viewBox="0 0 430 430"><defs><clipPath id="a"><path d="M0 0h430v430H0z"/></clipPath><clipPath id="d"><path d="M0 0h430v430H0z"/></clipPath><clipPath id="c"><path d="M0 0h430v430H0z"/></clipPath><clipPath id="b"><path d="M0 0h430v430H0z"/></clipPath></defs><g fill="none" clip-path="url(#a)"><g clip-path="url(#b)" style="display:none"><path class="secondary" style="display:none"/><path class="secondary" style="display:none"/><path class="secondary" style="display:none"/><path class="secondary" style="display:none"/><path class="secondary" style="display:none"/><path class="primary" style="display:none"/><path class="primary" style="display:none"/><path class="primary" style="display:none"/><path class="primary" style="display:none"/><path class="primary" style="display:none"/><path class="secondary" style="display:none"/><path class="secondary" style="display:none"/><path class="secondary" style="display:none"/><path class="secondary" style="display:none"/><path class="secondary" style="display:none"/><g style="display:none"><path class="primary"/><path class="primary"/><path class="primary"/></g></g><g clip-path="url(#c)" style="display:block"><path stroke="#08A88A" stroke-linecap="round" stroke-linejoin="round" stroke-width="12" d="m-12.5 155-15-70h-45m125 30-15-70h-110m145-45h-144m124-115-15 70h-110m60-110-15 70h-45" class="secondary" style="display:block" transform="translate(287.5 215)"/><path class="primary" style="display:none"/><path class="primary" style="display:none"/><path class="primary" style="display:none"/><path class="primary" style="display:none"/><path class="primary" style="display:none"/><path stroke="#08A88A" stroke-width="12" d="M0-15c8.278 0 15 6.722 15 15 0 8.278-6.722 15-15 15-8.278 0-15-6.722-15-15 0-8.278 6.722-15 15-15z" class="secondary" style="display:block" transform="matrix(0 1 1 0 275 385)"/><path stroke="#08A88A" stroke-width="12" d="M0-15c8.278 0 15 6.722 15 15 0 8.278-6.722 15-15 15-8.278 0-15-6.722-15-15 0-8.278 6.722-15 15-15z" class="secondary" style="display:block" transform="matrix(0 1 1 0 340 345)"/><path stroke="#08A88A" stroke-width="12" d="M0-15c8.278 0 15 6.722 15 15 0 8.278-6.722 15-15 15-8.278 0-15-6.722-15-15 0-8.278 6.722-15 15-15z" class="secondary" style="display:block" transform="matrix(0 -1 -1 0 375 215)"/><path stroke="#08A88A" stroke-width="12" d="M0-15c8.278 0 15 6.722 15 15 0 8.278-6.722 15-15 15-8.278 0-15-6.722-15-15 0-8.278 6.722-15 15-15z" class="secondary" style="display:block" transform="matrix(0 -1 1 0 340 85)"/><path stroke="#08A88A" stroke-width="12" d="M0-15c8.278 0 15 6.722 15 15 0 8.278-6.722 15-15 15-8.278 0-15-6.722-15-15 0-8.278 6.722-15 15-15z" class="secondary" style="display:block" transform="matrix(0 1 1 0 275 45)"/><g stroke="#121331" stroke-linecap="round" stroke-linejoin="round" stroke-width="12" style="display:block"><path d="M64.102 249.064c8.259 9.001 20.127 14.639 33.306 14.639m58.224-110.294c0-24.961-20.224-45.197-45.185-45.197a45.18 45.18 0 0 0-16.046 2.933m120.132 239.588V70.642C214.533 48.194 196.93 30 174.482 30c-20.987 0-37.248 15.896-39.407 36.314-.086 0-.161-.011-.236-.011-22.448 0-40.642 18.194-40.642 40.642 0 1.428.074 2.824.214 4.21-17.034 6.477-29.149 22.943-29.149 42.254 0 9.946 3.222 19.117 8.657 26.582-12.942 7.948-21.578 22.223-21.578 38.527 0 11.75 4.489 22.447 11.836 30.481-9.183 6.541-15.176 17.26-15.176 29.397 0 13.447 7.367 25.176 18.269 31.373a47.11 47.11 0 0 0-2.019 13.673c0 26.035 21.105 47.14 47.14 47.14 1.418 0 2.814-.076 4.2-.194C124.786 387.884 142.539 400 163.129 400c28.376 0 51.372-22.996 51.372-51.372s-23.006-51.372-51.372-51.372" class="primary"/><path d="M214.287 186.994c-23.594 34.898-79.306 27.013-91.735-13.705m37.796 95.999c-24.961 0-45.196 20.224-45.196 45.185m99.381-207.528c0-6.809-3.147-12.899-8.055-16.873a21.617 21.617 0 0 0-13.651-4.834" class="primary"/></g></g><g clip-path="url(#d)" style="display:none"><path class="secondary" style="display:none"/><path class="secondary" style="display:none"/><path class="secondary" style="display:none"/><path class="secondary" style="display:none"/><path class="secondary" style="display:none"/><path class="secondary" style="display:none"/><path class="secondary" style="display:none"/><path class="secondary" style="display:none"/><path class="secondary" style="display:none"/><path class="secondary" style="display:none"/><g style="display:none"><path class="primary"/><path class="primary"/><path class="primary"/></g><path class="primary" style="display:none"/><path class="primary" style="display:none"/><path class="primary" style="display:none"/><path class="primary" style="display:none"/><path class="primary" style="display:none"/><path class="primary" style="display:none"/><path class="primary" style="display:none"/><path class="primary" style="display:none"/></g></g></svg>